<?xml version="1.0" encoding="UTF-8" standalone="no"?>
<svg viewBox="0 0 750 1750" xmlns="http://www.w3.org/2000/svg">
  <rect width="750" height="1750" fill="#f9f7f0" />
  <text x="375" y="40" font-family="Arial" font-size="24" font-weight="bold" text-anchor="middle" fill="#333">SIMBOLI PER LE CARTE DI LIRYA</text>
  
  <!-- SEZIONE 1: RARITÀ -->
  <rect x="50" y="60" width="650" height="250" fill="#eee8d5" stroke="#333" stroke-width="1" rx="10" ry="10"/>
  <text x="375" y="90" font-family="Arial" font-size="20" font-weight="bold" text-anchor="middle" fill="#333">SIMBOLI DI RARITÀ</text>
  
  <!-- Comune -->
  <circle cx="100" cy="150" r="35" fill="#7a9a7a" stroke="#333" stroke-width="1.5"/>
  <text x="100" y="160" font-family="Arial" font-size="30" font-weight="bold" text-anchor="middle" fill="white">C</text>
  <text x="100" y="200" font-family="Arial" font-size="16" text-anchor="middle" fill="#333">Comune</text>
  
  <!-- Non Comune -->
  <circle cx="200" cy="150" r="35" fill="#6b8ab8" stroke="#333" stroke-width="1.5"/>
  <text x="200" y="160" font-family="Arial" font-size="30" font-weight="bold" text-anchor="middle" fill="white">N</text>
  <text x="200" y="200" font-family="Arial" font-size="16" text-anchor="middle" fill="#333">Non Comune</text>
  
  <!-- Raro -->
  <circle cx="300" cy="150" r="35" fill="#a56bce" stroke="#333" stroke-width="1.5"/>
  <text x="300" y="160" font-family="Arial" font-size="30" font-weight="bold" text-anchor="middle" fill="white">R</text>
  <text x="300" y="200" font-family="Arial" font-size="16" text-anchor="middle" fill="#333">Raro</text>
  
  <!-- Ultra-Raro -->
  <circle cx="400" cy="150" r="35" fill="#b8486b" stroke="#333" stroke-width="1.5"/>
  <text x="400" y="160" font-family="Arial" font-size="30" font-weight="bold" text-anchor="middle" fill="white">U</text>
  <text x="400" y="200" font-family="Arial" font-size="16" text-anchor="middle" fill="#333">Ultra-Raro</text>
  
  <!-- Leggendario -->
  <circle cx="500" cy="150" r="35" fill="#e0aa40" stroke="#333" stroke-width="1.5"/>
  <text x="500" y="160" font-family="Arial" font-size="30" font-weight="bold" text-anchor="middle" fill="white">L</text>
  <text x="500" y="200" font-family="Arial" font-size="16" text-anchor="middle" fill="#333">Leggendario</text>
  
  <!-- Promo -->
  <circle cx="600" cy="150" r="35" fill="#49a09d" stroke="#333" stroke-width="1.5"/>
  <text x="600" y="160" font-family="Arial" font-size="30" font-weight="bold" text-anchor="middle" fill="white">P</text>
  <text x="600" y="200" font-family="Arial" font-size="16" text-anchor="middle" fill="#333">Promo</text>
  
  <!-- SEZIONE 2: ELEMENTI -->
  <rect x="50" y="330" width="650" height="300" fill="#eee8d5" stroke="#333" stroke-width="1" rx="10" ry="10"/>
  <text x="375" y="360" font-family="Arial" font-size="20" font-weight="bold" text-anchor="middle" fill="#333">SIMBOLI DEGLI ELEMENTI</text>
  
  <!-- Fuoco -->
  <circle cx="150" cy="430" r="30" fill="#e05c41" stroke="#333" stroke-width="1"/>
  <path d="M150,420 Q145,410 142,425 Q135,410 140,445 Q135,435 150,455 Q165,435 160,445 Q165,410 158,425 Q155,410 150,420" fill="white"/>
  <text x="150" y="480" font-family="Arial" font-size="14" text-anchor="middle" fill="#333">Fuoco</text>
  
  <!-- Acqua -->
  <circle cx="250" cy="430" r="30" fill="#4176b5" stroke="#333" stroke-width="1"/>
  <path d="M250,445 C240,430 235,415 250,415 C265,415 260,430 250,445 Z" fill="white"/>
  <path d="M245,425 C242,420 242,415 245,415 C248,415 248,420 245,425 Z" fill="#4176b5"/>
  <text x="250" y="480" font-family="Arial" font-size="14" text-anchor="middle" fill="#333">Acqua</text>
  
  <!-- Terra -->
  <circle cx="350" cy="430" r="30" fill="#8a6642" stroke="#333" stroke-width="1"/>
  <path d="M335,435 L365,435 M335,425 L365,425 M335,445 L365,445" stroke="white" stroke-width="2.5"/>
  <path d="M340,420 L340,450 M345,420 L345,450 M355,420 L355,450 M360,420 L360,450" stroke="white" stroke-width="1.5"/>
  <text x="350" y="480" font-family="Arial" font-size="14" text-anchor="middle" fill="#333">Terra</text>
  
  <!-- Aria -->
  <circle cx="450" cy="430" r="30" fill="#87aade" stroke="#333" stroke-width="1"/>
  <path d="M440,420 C445,415 455,415 460,420 M435,430 C445,420 455,420 465,430 M440,440 C445,445 455,445 460,440" stroke="white" stroke-width="2" fill="none"/>
  <text x="450" y="480" font-family="Arial" font-size="14" text-anchor="middle" fill="#333">Aria</text>
  
  <!-- Luce -->
  <circle cx="550" cy="430" r="30" fill="#e9cb56" stroke="#333" stroke-width="1"/>
  <path d="M550,415 L550,445 M535,430 L565,430 M540,420 L560,440 M540,440 L560,420" stroke="white" stroke-width="2"/>
  <text x="550" y="480" font-family="Arial" font-size="14" text-anchor="middle" fill="#333">Luce</text>
  
  <!-- Ombra -->
  <circle cx="150" cy="530" r="30" fill="#594e6b" stroke="#333" stroke-width="1"/>
  <path d="M145,520 A10,10 0 0 1 155,520 A10,10 0 0 1 145,520" fill="white"/>
  <path d="M140,535 A15,15 0 0 0 160,535 A15,15 0 0 0 140,535" fill="white"/>
  <text x="150" y="580" font-family="Arial" font-size="14" text-anchor="middle" fill="#333">Ombra</text>
  
  <!-- Neutrale -->
  <circle cx="250" cy="530" r="30" fill="#808080" stroke="#333" stroke-width="1"/>
  <circle cx="250" cy="530" r="15" fill="white"/>
  <circle cx="250" cy="530" r="7" fill="#808080"/>
  <text x="250" y="580" font-family="Arial" font-size="14" text-anchor="middle" fill="#333">Neutrale</text>
  
  <!-- SEZIONE 3: CLASSI -->
  <rect x="50" y="650" width="650" height="300" fill="#eee8d5" stroke="#333" stroke-width="1" rx="10" ry="10"/>
  <text x="375" y="680" font-family="Arial" font-size="20" font-weight="bold" text-anchor="middle" fill="#333">SIMBOLI DELLE CLASSI</text>
  
  <!-- Guerriero -->
  <circle cx="150" cy="750" r="30" fill="#8a4b20" stroke="#333" stroke-width="1"/>
  <path d="M140,740 L160,740 M150,734 L150,766 M143,745 L157,755 M143,755 L157,745" stroke="white" stroke-width="2"/>
  <text x="150" y="800" font-family="Arial" font-size="14" text-anchor="middle" fill="#333">Guerriero</text>
  
  <!-- Mago -->
  <circle cx="250" cy="750" r="30" fill="#73438e" stroke="#333" stroke-width="1"/>
  <path d="M250,735 L240,765 L260,765 Z" fill="none" stroke="white" stroke-width="2"/>
  <path d="M250,750 L250,762" stroke="white" stroke-width="2"/>
  <circle cx="250" cy="742" r="3" fill="white"/>
  <text x="250" y="800" font-family="Arial" font-size="14" text-anchor="middle" fill="#333">Mago</text>
  
  <!-- Ranger -->
  <circle cx="350" cy="750" r="30" fill="#568c49" stroke="#333" stroke-width="1"/>
  <path d="M350,735 C340,745 340,755 350,765 C360,755 360,745 350,735" fill="none" stroke="white" stroke-width="2"/>
  <path d="M350,735 L350,765" stroke="white" stroke-width="2"/>
  <text x="350" y="800" font-family="Arial" font-size="14" text-anchor="middle" fill="#333">Ranger</text>
  
  <!-- Chierico -->
  <circle cx="450" cy="750" r="30" fill="#e9cb56" stroke="#333" stroke-width="1"/>
  <path d="M450,735 L450,765 M440,745 L460,745" stroke="white" stroke-width="3"/>
  <circle cx="450" cy="745" r="10" fill="none" stroke="white" stroke-width="1.5"/>
  <text x="450" y="800" font-family="Arial" font-size="14" text-anchor="middle" fill="#333">Chierico</text>
  
  <!-- Druido (Esp. 1) -->
  <circle cx="550" cy="750" r="30" fill="#5e8265" stroke="#333" stroke-width="1"/>
  <path d="M550,735 L550,760 M540,735 C537,750 563,750 560,735" stroke="white" stroke-width="2"/>
  <path d="M537,765 C545,755 555,755 563,765" stroke="white" stroke-width="2" fill="none"/>
  <text x="550" y="800" font-family="Arial" font-size="14" text-anchor="middle" fill="#333">Druido (Esp. 1)</text>
  
  <!-- Assassino (Esp. 1) -->
  <circle cx="150" cy="850" r="30" fill="#5e5f7a" stroke="#333" stroke-width="1"/>
  <path d="M140,840 L160,860 M140,860 L160,840" stroke="white" stroke-width="2"/>
  <path d="M150,835 L145,850 L155,850" stroke="white" stroke-width="2" fill="none"/>
  <text x="150" y="900" font-family="Arial" font-size="14" text-anchor="middle" fill="#333">Assassino (Esp. 1)</text>
  
  <!-- Paladino (Esp. 2) -->
  <circle cx="250" cy="850" r="30" fill="#d1b347" stroke="#333" stroke-width="1"/>
  <path d="M250,835 L250,865 M240,845 L260,845" stroke="white" stroke-width="2"/>
  <path d="M240,835 L260,835 L260,855 L240,855 Z" fill="none" stroke="white" stroke-width="1.5"/>
  <text x="250" y="900" font-family="Arial" font-size="14" text-anchor="middle" fill="#333">Paladino (Esp. 2)</text>
  
  <!-- Necromante (Esp. 2) -->
  <circle cx="350" cy="850" r="30" fill="#4a3a54" stroke="#333" stroke-width="1"/>
  <path d="M340,840 L360,840 M350,835 L350,855 M340,850 L360,850" stroke="white" stroke-width="2"/>
  <path d="M340,860 C340,865 360,865 360,860" stroke="white" stroke-width="1.5" fill="none"/>
  <text x="350" y="900" font-family="Arial" font-size="14" text-anchor="middle" fill="#333">Necromante (Esp. 2)</text>
  
  <!-- SEZIONE 4: TIPI DI CARTE -->
  <rect x="50" y="970" width="650" height="300" fill="#eee8d5" stroke="#333" stroke-width="1" rx="10" ry="10"/>
  <text x="375" y="1000" font-family="Arial" font-size="20" font-weight="bold" text-anchor="middle" fill="#333">SIMBOLI DEI TIPI DI CARTE</text>
  
  <!-- Personaggio -->
  <circle cx="150" cy="1070" r="30" fill="#6b568c" stroke="#333" stroke-width="1"/>
  <circle cx="150" cy="1060" r="6" fill="white"/>
  <path d="M140,1080 L150,1065 L160,1080 M150,1065 L150,1085" stroke="white" stroke-width="2.5" fill="none"/>
  <text x="150" y="1120" font-family="Arial" font-size="14" text-anchor="middle" fill="#333">Personaggio</text>
  
  <!-- Struttura -->
  <circle cx="250" cy="1070" r="30" fill="#8a6642" stroke="#333" stroke-width="1"/>
  <path d="M240,1085 L240,1065 L250,1055 L260,1065 L260,1085 Z" fill="white" stroke="white" stroke-width="1"/>
  <path d="M245,1085 L245,1070 M255,1085 L255,1070" stroke="#8a6642" stroke-width="2"/>
  <text x="250" y="1120" font-family="Arial" font-size="14" text-anchor="middle" fill="#333">Struttura</text>
  
  <!-- Incantesimo -->
  <circle cx="350" cy="1070" r="30" fill="#5080d0" stroke="#333" stroke-width="1"/>
  <path d="M350,1060 L353,1070 L365,1070 L355,1076 L360,1085 L350,1079 L340,1085 L345,1076 L335,1070 L347,1070 Z" fill="white"/>
  <text x="350" y="1120" font-family="Arial" font-size="14" text-anchor="middle" fill="#333">Incantesimo</text>
  
  <!-- Equipaggiamento -->
  <circle cx="450" cy="1070" r="30" fill="#c0a030" stroke="#333" stroke-width="1"/>
  <path d="M440,1060 L460,1080 M440,1060 L435,1055 M445,1065 L440,1060 M455,1075 L460,1080 M460,1080 L465,1075" stroke="white" stroke-width="2"/>
  <path d="M445,1060 C448,1057 452,1057 455,1060" stroke="white" fill="none" stroke-width="1.5"/>
  <text x="450" y="1120" font-family="Arial" font-size="14" text-anchor="middle" fill="#333">Equipaggiamento</text>
  
  <!-- Token -->
  <circle cx="550" cy="1070" r="30" fill="#949494" stroke="#333" stroke-width="1"/>
  <circle cx="550" cy="1070" r="10" fill="white" stroke="white"/>
  <path d="M540,1070 L560,1070 M550,1060 L550,1080" stroke="#949494" stroke-width="1.5"/>
  <text x="550" y="1120" font-family="Arial" font-size="14" text-anchor="middle" fill="#333">Token</text>
  
  <!-- SEZIONE 5: CITTÀ-STATO -->
  <rect x="50" y="1290" width="650" height="240" fill="#eee8d5" stroke="#333" stroke-width="1" rx="10" ry="10"/>
  <text x="375" y="1320" font-family="Arial" font-size="20" font-weight="bold" text-anchor="middle" fill="#333">SIMBOLI DELLE CITTÀ-STATO</text>
  
  <!-- Emberhold -->
  <circle cx="120" cy="1380" r="30" fill="#e05c41" stroke="#333" stroke-width="1"/>
  <path d="M120,1370 L110,1380 L120,1390 L130,1380 Z" fill="white"/>
  <circle cx="120" cy="1380" r="5" fill="white"/>
  <text x="120" y="1430" font-family="Arial" font-size="14" text-anchor="middle" fill="#333">Emberhold</text>
  
  <!-- Tidemire -->
  <circle cx="220" cy="1380" r="30" fill="#4176b5" stroke="#333" stroke-width="1"/>
  <path d="M210,1370 L230,1370 L230,1390 L210,1390 Z" stroke="white" stroke-width="1" fill="none"/>
  <path d="M205,1380 L235,1380 M215,1375 L225,1385 M215,1385 L225,1375" stroke="white" stroke-width="1.5"/>
  <text x="220" y="1430" font-family="Arial" font-size="14" text-anchor="middle" fill="#333">Tidemire</text>
  
  <!-- Stonereach -->
  <circle cx="320" cy="1380" r="30" fill="#8a6642" stroke="#333" stroke-width="1"/>
  <path d="M310,1390 L310,1370 L320,1365 L330,1370 L330,1390 Z" fill="none" stroke="white" stroke-width="2"/>
  <path d="M320,1370 L320,1390" stroke="white" stroke-width="1.5"/>
  <text x="320" y="1430" font-family="Arial" font-size="14" text-anchor="middle" fill="#333">Stonereach</text>
  
  <!-- Mistral -->
  <circle cx="420" cy="1380" r="30" fill="#87aade" stroke="#333" stroke-width="1"/>
  <path d="M410,1370 C415,1365 425,1365 430,1370 M405,1380 C415,1370 425,1370 435,1380 M410,1390 C415,1395 425,1395 430,1390" stroke="white" stroke-width="2" fill="none"/>
  <text x="420" y="1430" font-family="Arial" font-size="14" text-anchor="middle" fill="#333">Mistral</text>
  
  <!-- Dawnfield -->
  <circle cx="520" cy="1380" r="30" fill="#e9cb56" stroke="#333" stroke-width="1"/>
  <path d="M520,1365 L520,1395 M505,1380 L535,1380 M510,1370 L530,1390 M510,1390 L530,1370" stroke="white" stroke-width="1.5"/>
  <circle cx="520" cy="1380" r="5" fill="white"/>
  <text x="520" y="1430" font-family="Arial" font-size="14" text-anchor="middle" fill="#333">Dawnfield</text>
  
  <!-- Veilcrest -->
  <circle cx="620" cy="1380" r="30" fill="#594e6b" stroke="#333" stroke-width="1"/>
  <path d="M610,1370 C610,1380 630,1380 630,1370 M610,1390 C610,1380 630,1380 630,1390" fill="none" stroke="white" stroke-width="1.5"/>
  <text x="620" y="1430" font-family="Arial" font-size="14" text-anchor="middle" fill="#333">Veilcrest</text>
  
  <!-- Indipendente -->
  <circle cx="175" cy="1480" r="30" fill="#808080" stroke="#333" stroke-width="1"/>
  <circle cx="175" cy="1480" r="10" fill="white"/>
  <circle cx="175" cy="1480" r="5" fill="#808080"/>
  <text x="175" y="1530" font-family="Arial" font-size="14" text-anchor="middle" fill="#333">Indipendente</text>
  
  <!-- SEZIONE 6: ABILITÀ SPECIALI -->
  <rect x="275" y="1480" width="425" height="180" fill="#eee8d5" stroke="#333" stroke-width="1" rx="10" ry="10"/>
  <text x="487.5" y="1510" font-family="Arial" font-size="20" font-weight="bold" text-anchor="middle" fill="#333">ABILITÀ SPECIALI</text>
  
  <!-- Assalto -->
  <circle cx="375" cy="1560" r="30" fill="#b13333" stroke="#333" stroke-width="1"/>
  <path d="M360,1550 L390,1550 M375,1550 L375,1575 L390,1550 M360,1550 L375,1575" stroke="white" stroke-width="2" fill="none"/>
  <text x="375" y="1610" font-family="Arial" font-size="14" text-anchor="middle" fill="#333">Assalto</text>
  
  <!-- Fortificazione -->
  <circle cx="487.5" cy="1560" r="30" fill="#636978" stroke="#333" stroke-width="1"/>
  <path d="M472.5,1575 L472.5,1555 L487.5,1545 L502.5,1555 L502.5,1575 Z" fill="none" stroke="white" stroke-width="2"/>
  <path d="M472.5,1555 L502.5,1555 M472.5,1565 L502.5,1565" stroke="white" stroke-width="1.5"/>
  <text x="487.5" y="1610" font-family="Arial" font-size="14" text-anchor="middle" fill="#333">Fortificazione</text>
  
  <!-- Stealth -->
  <circle cx="600" cy="1560" r="30" fill="#353633" stroke="#333" stroke-width="1"/>
  <path d="M585,1560 C595,1550 605,1550 615,1560 M585,1560 C595,1570 605,1570 615,1560" stroke="white" stroke-width="1.5" fill="none"/>
  <text x="600" y="1610" font-family="Arial" font-size="14" text-anchor="middle" fill="#333">Stealth</text>
</svg>
