<?xml version="1.0" encoding="UTF-8" standalone="no"?>
<svg viewBox="0 0 750 1050" xmlns="http://www.w3.org/2000/svg">
  <!-- Bordo della carta -->
  <rect x="25" y="25" width="700" height="1000" rx="35" ry="35" fill="#f8f6e9" stroke="#333" stroke-width="2"/>
  
  <!-- Bordi elementali decorativi per carte Struttura (marrone/terra) -->
  <rect x="40" y="40" width="670" height="970" rx="25" ry="25" fill="none" stroke="#8a6642" stroke-width="10" stroke-dasharray="0, 30" stroke-linecap="round"/>
  
  <!-- Cornice superiore -->
  <rect x="60" y="60" width="630" height="60" rx="10" ry="10" fill="#b89976" stroke="#333" stroke-width="1"/>
  
  <!-- Nome della carta -->
  <rect x="130" y="65" width="490" height="50" rx="5" ry="5" fill="#e0d0b0" stroke="#333" stroke-width="1"/>
  <text id="card-name" x="375" y="100" font-family="Arial" font-size="32" font-weight="bold" text-anchor="middle" fill="#333">{{nome}}</text>
  
  <!-- Costo di energia -->
  <circle cx="90" cy="90" r="35" fill="#f0d75d" stroke="#333" stroke-width="2"/>
  <text id="card-cost" x="90" y="100" font-family="Arial" font-size="32" font-weight="bold" text-anchor="middle" fill="#333">{{costo}}</text>
  
  <!-- Rarità -->
  <circle cx="660" cy="90" r="25" fill="#a56bce" stroke="#333" stroke-width="1"/>
  <text id="card-rarity" x="660" y="100" font-family="Arial" font-size="20" font-weight="bold" text-anchor="middle" fill="white">{{rarita}}</text>

  <!-- Illustrazione -->
  <defs>
    <clipPath id="rounded-rect">
      <rect x="60" y="130" width="630" height="470" rx="10" ry="10"/>
    </clipPath>
  </defs>
  
  <!-- Rettangolo di sfondo -->
  <rect x="60" y="130" width="630" height="470" rx="10" ry="10" fill="#f0e5d0" stroke="#333" stroke-width="2"/>
  
  <!-- Immagine con clipPath applicato -->
  <image href="{{immagine}}" 
         width="630" height="470" x="60" y="130" 
         clip-path="url(#rounded-rect)" 
         preserveAspectRatio="xMidYMid slice"/>
         
  <!-- Numero di serie e Set di appartenenza -->
  <rect x="60" y="610" width="630" height="30" rx="5" ry="5" fill="#e0d0b0" stroke="#333" stroke-width="0.5" stroke-dasharray="5,5"/>
  <text id="card-id" x="650" y="630" font-family="Arial" font-size="16" text-anchor="end" fill="#666">{{id}}</text>
  <text id="card-series" x="100" y="630" font-family="Arial" font-size="16" font-style="italic" text-anchor="start" fill="#666">{{set}}</text>
  
  <!-- Tipo di carta ed elemento -->
  <rect x="60" y="650" width="630" height="50" rx="8" ry="8" fill="#b89976" stroke="#333" stroke-width="1"/>
  
  <!-- Elemento (simbolo Fuoco) -->
  <circle cx="90" cy="675" r="20" fill="#e05c41" stroke="#333" stroke-width="1"/>
  <path d="M90,665 Q85,655 82,670 Q75,655 80,680 Q75,670 90,690 Q105,670 100,680 Q105,655 98,670 Q95,655 90,665" fill="white"/>
  
  <!-- Tipo (simbolo Struttura) -->
  <circle cx="600" cy="675" r="20" fill="#8a6642" stroke="#333" stroke-width="1"/>
  <!-- Simbolo stilizzato di un edificio/torre -->
  <path d="M590,690 L590,670 L600,660 L610,670 L610,690 Z" fill="white" stroke="white" stroke-width="1"/>
  <path d="M595,690 L595,675 M605,690 L605,675" stroke="#8a6642" stroke-width="2"/>
  
  <!-- Simbolo città-stato (Emberhold) -->
  <circle cx="660" cy="675" r="20" fill="#e05c41" stroke="#333" stroke-width="1"/>
  <path d="M660,665 L650,675 L660,685 L670,675 Z" fill="white"/>
  <circle cx="660" cy="675" r="5" fill="white"/>

  <!-- Riquadro per il testo delle abilità -->
  <rect x="60" y="710" width="630" height="275" rx="10" ry="10" fill="#f0e5d0" stroke="#333" stroke-width="2"/>
  
  <!-- Effetto -->
  <rect x="90" y="730" width="570" height="190" rx="10" ry="10" fill="#e0d0b0" stroke="#333" stroke-width="1" opacity="0.6"/>
  <text id="card-ability-name" x="375" y="780" font-family="Arial" font-size="22" font-weight="bold" text-anchor="middle" fill="#333">{{abilita_nome}}</text>
  <rect x="150" y="790" width="450" height="1" fill="#333"/>
  <text id="card-ability-effect" x="375" y="820" font-family="Arial" font-size="20" text-anchor="middle" fill="#333">{{abilita_effetto}}</text>
  
  <!-- Testo di ambientazione -->
  <rect x="90" y="930" width="570" height="55" rx="8" ry="8" fill="#f0e5d0" stroke="#333" stroke-width="0.5" stroke-dasharray="5,5"/>
  <text id="card-flavor-text" x="375" y="958" font-family="Arial" font-size="16" font-style="italic" text-anchor="middle" fill="#666">{{flavor_text}}</text>
  
</svg>
